<svg height='100px' width='100px'  fill="#266980" xmlns="http://www.w3.org/2000/svg" data-name="Layer 1" viewBox="0 0 100 100" x="0px" y="0px"><title>dental-crowns-bridges_1</title><path d="M83.85,19.75c-.83-5.81-3-10-6.41-12.36s-8.13-3-13.92-1.76l-2.44.53A50.37,50.37,0,0,1,50,7.79,50.38,50.38,0,0,1,38.92,6.17l-2.44-.53C30.7,4.39,26,5,22.57,7.39S17,13.93,16.15,19.75c-.71,5,1.63,13.28,3.89,19.73H41.49A1.5,1.5,0,0,1,43,41v6.25a.5.5,0,0,0,.5.5H55.84a.5.5,0,0,0,.5-.5V40.86a1.5,1.5,0,0,1,1.5-1.5H80C82.24,32.94,84.56,24.72,83.85,19.75Z"></path><path d="M57.84,40.36a.5.5,0,0,0-.5.5v6.36a1.5,1.5,0,0,1-1.5,1.5H43.49a1.5,1.5,0,0,1-1.5-1.5V41a.5.5,0,0,0-.5-.5H20.4c1.33,3.72,2.57,6.68,3.06,7.81-1.61,17.55-.95,30.89,2,39.65.1.3,2.4,7.07,6.52,7.07l.37,0c3.6-.36,5.74-5.32,7.15-16.61,1.65-13.23,3.74-20,10.53-20s8.88,6.77,10.53,20C61.94,89.66,64.08,94.62,67.68,95l.37,0c4.11,0,6.42-6.77,6.52-7.07,2.92-8.76,3.59-22.1,2-39.65.49-1.14,1.75-4.15,3.1-7.92Z"></path></svg>