<svg height='100px' width='100px'  fill="#266980" xmlns="http://www.w3.org/2000/svg" data-name="Layer 1" viewBox="0 0 100 100" x="0px" y="0px"><title>caries-filling_1</title><path d="M35.36,7.63,39,9.54l-3.94,2.94,4.81.5-1.16,3.88,6.75-2.25.63,4.61,3.56-3.63,4.43,3.76.3-4.28,6.46,1.71-2.91-4.1,6.15-.27-4.36-2,5.09-2.76L59.65,6.7l.11-.25A45,45,0,0,1,50,7.79a42.92,42.92,0,0,1-9.16-1.21h0Z"></path><path d="M83.85,19.75c-.83-5.81-3-10-6.41-12.36s-8.13-3-13.92-1.76L61.65,6l6.16,1.09L62,10.31l6.28,2.91-8.41.37,3.45,4.85-8-2.11-.36,5-5.22-4.43-4.33,4.42-.75-5.43L37.2,18.42l1.37-4.56-6.15-.65,4.72-3.52-4.78-2.5,6-1.14-1.87-.41C30.7,4.39,26,5,22.57,7.39S17,13.93,16.15,19.75c-1.18,8.24,6,25.42,7.3,28.54-1.61,17.55-.95,30.89,2,39.65.1.3,2.4,7.07,6.52,7.07l.37,0c3.6-.36,5.74-5.32,7.15-16.61,1.65-13.23,3.74-20,10.53-20s8.88,6.77,10.53,20C61.94,89.66,64.08,94.62,67.68,95l.37,0c4.11,0,6.42-6.77,6.52-7.07,2.92-8.76,3.59-22.1,2-39.65C77.88,45.17,85,28,83.85,19.75Z"></path></svg>