<svg height='100px' width='100px'  fill="#266980" xmlns="http://www.w3.org/2000/svg" data-name="Layer 1" viewBox="0 0 100 100" x="0px" y="0px"><title>root-canal_1</title><path d="M65.08,46.16c-.28-1.9-.52-3.5-.67-4.73a9.52,9.52,0,0,1,.81-4.82c.67-1.8,1.12-3-.51-4.78-1.9-2.1-6.07-1-9.76-.12a25.69,25.69,0,0,1-4.81.91v0h-.29v0A25.69,25.69,0,0,1,45,31.71c-3.68-.93-7.85-2-9.76.12-1.62,1.79-1.18,3-.51,4.78a9.52,9.52,0,0,1,.81,4.82c-.16,1.22-.39,2.83-.67,4.73-.74,5-1.75,11.85-2.47,19.54a159,159,0,0,0-.27,19.1c2.8-28.25,11.57-39,17.66-39.26h.32c5.33.26,14.81,9.57,17.32,42.27a161.6,161.6,0,0,0,.08-22.11C66.83,58,65.82,51.17,65.08,46.16Z"></path><path d="M83.85,19.75c-.83-5.81-3-10-6.41-12.36s-8.13-3-13.92-1.76l-2.44.53A50.37,50.37,0,0,1,50,7.79,50.38,50.38,0,0,1,38.92,6.17l-2.44-.53C30.7,4.39,26,5,22.57,7.39S17,13.93,16.15,19.75c-1.18,8.24,6,25.42,7.3,28.54-1.61,17.55-.95,30.89,2,39.65.09.28,2.17,6.35,5.88,7-.63-6.12-1.22-20.21-.35-29.37.73-7.73,1.75-14.6,2.48-19.62.28-1.89.51-3.48.67-4.7a8.17,8.17,0,0,0-.72-4.11c-.71-1.89-1.44-3.85.8-6.31,2.51-2.76,7.14-1.6,11.23-.57a23.89,23.89,0,0,0,4.59.87,23.89,23.89,0,0,0,4.59-.87c4.09-1,8.73-2.2,11.23.57,2.24,2.47,1.51,4.42.8,6.31a8.17,8.17,0,0,0-.72,4.11c.16,1.22.39,2.81.67,4.7.74,5,1.75,11.89,2.48,19.62.85,9,0,22.92-.65,29.4,3.89-.37,6.07-6.74,6.17-7,2.92-8.76,3.59-22.1,2-39.65C77.88,45.17,85,28,83.85,19.75Z"></path><path d="M50,47c-6,.09-15.51,13.13-17,47.81,3.2-.89,5.15-5.92,6.47-16.49,1.65-13.23,3.74-20,10.53-20s8.88,6.77,10.53,20c1.23,9.86,3,14.89,5.85,16.25C64.72,55.86,54.18,47.13,50,47Z"></path></svg>